<svg xmlns="http://www.w3.org/2000/svg" viewBox="0 0 470 470"><g fill="#FFFC19"><path d="M157.677 259.237c7.171 0 10.388 2.405 14.839 5.733 5.195 3.885 11.662 8.719 23.82 8.719s18.625-4.834 23.82-8.719c4.451-3.328 7.667-5.733 14.838-5.733 7.172 0 10.389 2.405 14.841 5.733 5.196 3.885 11.663 8.719 23.822 8.719 12.16 0 18.626-4.834 23.823-8.719 4.452-3.328 7.669-5.733 14.841-5.733a7.5 7.5 0 000-15c-12.16 0-18.626 4.834-23.823 8.719-4.452 3.328-7.669 5.733-14.841 5.733s-10.389-2.405-14.841-5.733c-5.196-3.885-11.663-8.719-23.823-8.719-12.159 0-18.625 4.834-23.821 8.719-4.451 3.328-7.667 5.733-14.838 5.733s-10.387-2.405-14.838-5.733c-5.196-3.885-11.663-8.719-23.821-8.719a7.5 7.5 0 10.002 15z"/><path d="M362.5 154.237h-8.73c-2.823-45.961-31.459-86.142-74.568-103.684a7.508 7.508 0 00-2.827-.553H241.5V22.5c0-4.136 3.364-7.5 7.5-7.5h45a7.5 7.5 0 000-15h-45c-12.407 0-22.5 10.093-22.5 22.5V50h-34.875c-.969 0-1.929.188-2.827.553-43.108 17.542-71.745 57.723-74.568 103.684h-6.73a7.5 7.5 0 00-7.5 7.5v30a7.5 7.5 0 007.5 7.5h8.107l18.932 224.024 3.369 39.87a7.5 7.5 0 007.473 6.869h179.237a7.5 7.5 0 007.473-6.869l22.301-263.894h8.107a7.5 7.5 0 007.5-7.5v-30a7.499 7.499 0 00-7.499-7.5zM193.118 65H226.5v22.375c-16.063 2.727-29.561 14.053-34.97 29.466-20.877 1.409-37.884 17.125-41.301 37.397h-20.966c2.766-39.351 27.169-73.731 63.855-89.238zM234 101.737c14.251 0 26.621 10.125 29.413 24.075a7.502 7.502 0 007.876 6.01 30.151 30.151 0 012.12-.085c13.953 0 25.712 9.575 29.051 22.5H165.54c3.339-12.925 15.097-22.5 29.051-22.5.618 0 1.292.027 2.12.085a7.504 7.504 0 007.876-6.01c2.792-13.95 15.162-24.075 29.413-24.075zM317.726 455H152.274l-2.113-25h147.837a7.5 7.5 0 000-15H148.894L130.66 199.237h208.68L317.726 455zM355 184.237H115v-15h201.5a7.5 7.5 0 007.5-7.5c0-3.701-2.683-6.768-6.209-7.381-3.37-20.329-20.404-36.104-41.322-37.516-5.408-15.413-18.907-26.739-34.97-29.466V65h33.382c39 16.485 64.118 54.298 64.118 96.737a7.5 7.5 0 007.5 7.5h8.5v15z"/></g></svg>